<svg xmlns="http://www.w3.org/2000/svg" viewBox="0 0 32 32">
  <defs>
    <linearGradient id="fg" x1="0%" y1="100%" x2="0%" y2="0%">
      <stop offset="0%" stop-color="#7f1d1d"/>
      <stop offset="30%" stop-color="#ef4444"/>
      <stop offset="60%" stop-color="#f59e0b"/>
      <stop offset="100%" stop-color="#fcd34d"/>
    </linearGradient>
    <linearGradient id="bg" x1="0%" y1="0%" x2="100%" y2="100%">
      <stop offset="0%" stop-color="#1e0533"/>
      <stop offset="100%" stop-color="#5b21b6"/>
    </linearGradient>
  </defs>
  <circle cx="16" cy="16" r="15" fill="url(#bg)" stroke="#8b5cf6" stroke-width="1"/>
  <path d="M16 4 C16 4, 10 12, 10 18 C10 22, 12.5 26, 16 26 C19.5 26, 22 22, 22 18 C22 12, 16 4, 16 4 Z" fill="url(#fg)"/>
  <path d="M16 10 C16 10, 13 15, 13 19 C13 21.5, 14.3 24, 16 24 C17.7 24, 19 21.5, 19 19 C19 15, 16 10, 16 10 Z" fill="#fef08a" opacity="0.8"/>
  <ellipse cx="16" cy="20" rx="2" ry="3" fill="#fff" opacity="0.9"/>
</svg>

